# xmcd CD database file
#
# Track frame offsets:
#	150
#	31757
#	53862
#	78260
#	117985
#	152512
#	184340
#	207397
#	247515
#
# Disc length: 3434
# Revision: 4
# Processed by: cddbd v1.5.2PL0 Copyright (c) Steve Scherf et al.
# Submitted via: cddb.el 1.0 (Emacs 27.0.50)
#
DISCID=670d6809
DTITLE=Ved Buens Ende... - Written in Waters
DYEAR=1900
DGENRE=
TTITLE0=I Sang For The Swans
TTITLE1=You, That May Wither
TTITLE2=It's Magic
TTITLE3=Den Saakaldte
TTITLE4=Carrier of Wounds
TTITLE5=Coiled In Wings
TTITLE6=Autumn Leaves
TTITLE7=Remembrance of Things Past
TTITLE8=To Swarm Deserted Away
EXTD=
EXTT0=
EXTT1=
EXTT2=
EXTT3=
EXTT4=
EXTT5=
EXTT6=
EXTT7=
EXTT8=
PLAYORDER=
